<?xml version="1.0" encoding="UTF-8" standalone="no"?><svg xmlns="http://www.w3.org/2000/svg" xmlns:xlink="http://www.w3.org/1999/xlink" fill="#000000" height="100" preserveAspectRatio="xMidYMid meet" version="1" viewBox="0.0 0.0 100.0 100.0" width="100" zoomAndPan="magnify"><g id="change1_1"><path d="M50,0.001c-27.614,0-50,22.386-50,50c0,27.612,22.386,50,50,50c27.616,0,50-22.388,50-50 C100,22.387,77.616,0.001,50,0.001z M69.588,77.64c-0.724,2.314-1.699,3.289-3.84,3.285c-1.961-0.008-15.76-0.679-18.609-0.693 c-9.707-0.03-16.309,2.265-20.493,2.257c-0.538-0.007-0.887-0.359-0.887-0.896c0.015-4.092,7.246-9.772,17.932-10.182l0.008-1.425 c0.032-9.615,5.892-31.686,10.563-44.23l-3.21,0.795c-6.866,1.935-11.326,6.285-14,6.277c-0.715,0-0.799-1.429-0.799-2.142 c0.019-5.876,5.203-10.672,10.91-12.343c4.449-1.32,12.477-4.142,16.751-4.131c0.803,0,2.937,2.412,2.925,4.815 c-0.022,7.837-8.212,32.658-9.697,52.428c8.992,0.21,13.894-0.667,13.887,1.92C71.024,74.089,70.034,76.219,69.588,77.64z" fill="#e8ddc4"/></g></svg>