<?xml version="1.0" encoding="UTF-8" standalone="no"?><svg xmlns="http://www.w3.org/2000/svg" xmlns:xlink="http://www.w3.org/1999/xlink" fill="#000000" height="100" preserveAspectRatio="xMidYMid meet" version="1" viewBox="0.0 0.0 100.0 100.0" width="100" zoomAndPan="magnify"><g fill="#e8ddc4" id="change1_1"><path d="M29.548,70.844c-0.004,1.695,1.517,2.378,2.872,2.386c1.44,0.007,3.137-1.343,5.093-3.458 c-1.773-0.854-3.383-1.451-4.907-1.455C30.995,68.31,29.556,69.153,29.548,70.844z" fill="inherit"/><path d="M50,0C22.386,0,0,22.386,0,50c0,27.616,22.386,50,50,50c27.616,0,50-22.384,50-50C100,22.386,77.616,0,50,0 z M57.907,78.73c-4.748-0.012-9.062-2.142-12.949-4.444c-3.06,3.293-7.556,5.565-13.49,5.551 c-6.945-0.022-10.157-3.931-10.136-9.525c0.019-5.843,4.768-8.711,11.293-8.688c4.239,0.011,7.541,0.536,10.248,1.388l1.701-2.111 c5.448-8.205,12.005-19.535,12.039-29.957c0.015-5.169-3.191-8.145-8.02-8.159c-11.523-0.04-11.293,8.014-15.87,7.998 c-0.679-0.004-1.103-0.769-1.099-1.359c0.021-5.844,6.829-14.807,19.115-14.766c12.116,0.04,19.215,5.484,19.188,15.315 C69.884,43.104,60.6,57.899,51.93,67.022c3.045,1.534,5.917,2.816,10.237,2.832c3.982,0.007,7.894-1.928,10.694-5.476 c1.275-1.691,2.385-2.456,3.061-2.452c0.851,0.004,1.268,1.275,1.26,3.221C77.159,71.932,69.344,78.771,57.907,78.73z" fill="inherit"/></g></svg>