<?xml version="1.0" encoding="UTF-8" standalone="no"?><svg xmlns="http://www.w3.org/2000/svg" xmlns:xlink="http://www.w3.org/1999/xlink" fill="#000000" height="100" preserveAspectRatio="xMidYMid meet" version="1" viewBox="0.0 0.0 100.0 100.0" width="100" zoomAndPan="magnify"><g id="change1_1"><path d="M50,0C22.386,0,0,22.386,0,50c0,27.616,22.386,50,50,50c27.616,0,50-22.384,50-50C100,22.386,77.616,0,50,0 z M47.047,80.286c-11.271-0.037-19.46-7.852-19.441-13.529c0.004-1.021,0.685-1.519,1.781-1.519 c4.4,0.015,8.283,6.892,15.821,6.915c9.406,0.029,12.983-6.99,12.995-11.393c0.022-5.764-1.74-9.754-3.518-12.389 c-1.182,0.25-2.37,0.33-3.642,0.327c-3.559-0.012-7.963-0.788-7.951-4.18c0.011-3.39,4.419-3.881,7.894-3.87 c0.681,0,1.783,0.177,3.043,0.52c1.789-2.282,3.581-5.496,3.597-10.241c0.025-5.169-3.02-8.145-8.021-8.16 c-11.527-0.035-11.301,8.014-15.874,7.999c-0.681,0-1.095-0.769-1.095-1.359c0.019-5.847,6.823-14.805,19.111-14.766 c12.114,0.039,19.21,5.398,19.18,15.313c-0.016,5.507-3.255,11.259-8.265,14.97c4.991,3.236,9.633,8.587,9.607,16.807 C72.224,74.271,58.57,80.324,47.047,80.286z" fill="#e8ddc4"/></g></svg>