<?xml version="1.0" encoding="UTF-8" standalone="no"?><svg xmlns="http://www.w3.org/2000/svg" xmlns:xlink="http://www.w3.org/1999/xlink" fill="#000000" height="100" preserveAspectRatio="xMidYMid meet" version="1" viewBox="0.0 0.0 100.0 100.0" width="100" zoomAndPan="magnify"><g id="change1_1"><path d="M50,0C22.385,0,0,22.385,0,49.999c0,27.616,22.385,49.999,50,49.999c27.613,0,50-22.383,50-49.999 C100,22.385,77.613,0,50,0z M77.38,59.818c-1.042,2.441-2.362,3.472-5.182,3.465c-1.5-0.008-5.641-0.214-9.593-0.413 c-1.154,8.085-1.935,16.08-1.95,22.657c-0.007,2.07-2.077,2.629-3.771,2.625c-7.899-0.026-10.241-2.854-10.219-10.095 c0.011-3.577,0.875-9.12,2.212-15.322c-8.936,0.532-15.429,2.018-19.943,2.19h-1.125c-4.696-2.272-7.224-4.822-8.809-8.872 c0.026-7.993,11.923-23.66,16.181-30.979c1.133-1.974,2.741-4.413,4.903-4.406c1.037,0.004,1.873,1.699,1.869,3.488 c-0.019,4.983-6.926,18.128-9.41,30.719c4.335-1.68,11.105-1.751,18.53-1.729c3.05-11.649,6.942-23.58,9.688-29.591 c1.425-3.098,4.064-6.569,7.26-6.559c0.852,0.004,1.223,0.945,1.215,2.355c-0.015,5.173-2.79,18.987-5.183,33.933 c8.933,0.217,15.232-0.611,15.225,2.024C79.278,56.061,77.951,58.318,77.38,59.818z" fill="#e8ddc4"/></g></svg>