<?xml version="1.0" encoding="UTF-8" standalone="no"?><svg xmlns="http://www.w3.org/2000/svg" xmlns:xlink="http://www.w3.org/1999/xlink" fill="#000000" height="100" preserveAspectRatio="xMidYMid meet" version="1" viewBox="0.0 0.0 100.0 100.0" width="100" zoomAndPan="magnify"><g id="change1_1"><path d="M50,0C22.386,0,0,22.386,0,50c0,27.616,22.386,50,50,50c27.616,0,50-22.384,50-50C100,22.386,77.616,0,50,0 z M74.332,20.57c-0.646,2.35-1.463,3.345-3.181,3.341c-1.545-0.003-11.407-0.673-13.762-0.68 c-3.346-0.012-7.335,0.431-11.229,0.871c-1.194,4.979-3.202,11.036-5.13,18.544c1.359-0.177,2.811-0.353,4.438-0.345 c12.585,0.037,23.704,5.599,23.647,21.62c-0.049,14.76-11.568,21.686-26.956,21.641c-12.047-0.041-20.798-8.486-20.775-14.464 c0-1.087,0.726-1.627,1.905-1.623c4.712,0.019,8.852,7.361,16.903,7.391c9.42,0.03,13.867-5.114,13.89-12.18 c0.022-6.791-2.22-13.766-11.904-13.8c-0.998-0.004-2.173,0.085-3.353,0.081c-0.638,0.901-1.815,1.352-3.353,1.348 c-1.896-0.641-4.251-2.004-4.783-3.997c0.833-6.332,2.947-16.013,6.043-23.062c-1.888,0.165-3.518,0.253-4.785,0.249 c-0.726,0-1.177-0.365-1.177-0.909c0.015-4.436,10.175-10.468,25.021-10.423c6.697,0.024,15.659,0.322,18.284,0.33 c0.908,0,1.448,0.365,1.448,1.725C75.517,16.953,74.691,19.123,74.332,20.57z" fill="#e8ddc4"/></g></svg>