<?xml version="1.0" encoding="utf-8" standalone="no"?><!-- Generator: Adobe Illustrator 16.0.0, SVG Export Plug-In . SVG Version: 6.00 Build 0)  --><svg xmlns="http://www.w3.org/2000/svg" xmlns:xlink="http://www.w3.org/1999/xlink" enable-background="new 0 0 100 100.001" fill="#000000" height="100.001px" id="Layer_1" version="1.1" viewBox="0 0 100 100.001" width="100px" x="0px" xml:space="preserve" y="0px">
<g id="change1">
	<path d="M50,0C22.386,0,0,22.385,0,50c0,27.615,22.386,50.002,50,50.002c27.616,0,50-22.387,50-50.002   C100,22.385,77.616,0,50,0z M45.734,82.07c-11.317-0.038-21.977-6.683-23.64-23.34c-1.363,0.54-2.635,0.893-3.901,0.893   c-0.811-0.004-1.171-0.817-1.171-1.635c0.008-1.268,2.001-2.978,4.903-4.418c0.242-18.654,12.538-40.522,33.266-40.456   c10.86,0.037,16.365,5.31,16.351,9.38c0,1.359-0.458,1.81-1.455,1.806c-2.266-0.007-7.23-2.469-15.646-2.491   c-9.867-0.036-16.24,10.989-18.09,22.301c5.258-2.334,10.787-3.591,16.485-3.57c14.032,0.049,21.149,9.484,21.12,19.264   C73.911,73.647,61.754,82.123,45.734,82.07z" fill="#e8ddc4"/>
	<path d="M49.916,48.856c-5.158-0.013-9.328,1.06-14.136,3.394c0.41,12.226,6.279,18.487,13.521,18.51   c7.515,0.026,12.506-5.122,12.528-11.186C61.844,53.6,57.791,48.878,49.916,48.856z" fill="#e8ddc4"/>
</g>
</svg>